<svg version="1.1" id="Layer_1" xmlns:x="ns_extend;" xmlns:i="ns_ai;" xmlns:graph="ns_graphs;" xmlns="http://www.w3.org/2000/svg" xmlns:xlink="http://www.w3.org/1999/xlink" x="0px" y="0px" viewBox="0 0 69.4 50" style="enable-background:new 0 0 69.4 50;" xml:space="preserve">
 <style type="text/css">
  .st0{filter:url(#Adobe_OpacityMaskFilter);}
	.st1{fill-rule:evenodd;clip-rule:evenodd;fill:#FFFFFF;}
	.st2{mask:url(#b_1_);fill-rule:evenodd;clip-rule:evenodd;fill:#FFFFFF;}
 </style>
 <metadata>
  <sfw xmlns="ns_sfw;">
   <slices>
   </slices>
   <sliceSourceBounds bottomLeftOrigin="true" height="50" width="69.4" x="-154.3" y="0.6">
   </sliceSourceBounds>
  </sfw>
 </metadata>
 <g>
  <g transform="translate(0 .342)">
   <defs>
    <filter id="Adobe_OpacityMaskFilter" filterUnits="userSpaceOnUse" x="0" y="-0.3" width="69.4" height="50">
     <feColorMatrix type="matrix" values="1 0 0 0 0  0 1 0 0 0  0 0 1 0 0  0 0 0 1 0">
     </feColorMatrix>
    </filter>
   </defs>
   <mask maskUnits="userSpaceOnUse" x="0" y="-0.3" width="69.4" height="50" id="b_1_">
    <g class="st0">
     <path id="a_1_" class="st1" d="M0-0.3h69.4v50H0V-0.3z">
     </path>
    </g>
   </mask>
   <path class="st2" d="M21,40.4c1.1,2.2,2.7,3.5,4.6,3.6h0c1.8,0,3.4-1.3,4.6-3.5l1.5-3.1l-14.2-30l-9.8,4.6L21,40.4z M39.5,40.5
			c1.1,2.2,2.8,3.5,4.6,3.5h0c1.8,0,3.5-1.3,4.6-3.5l13.2-28.5L52,7.3l-14,30C38,37.3,39.5,40.5,39.5,40.5z M44,49.7
			c-3.7,0-7.1-2.1-9.2-5.7c-2.1,3.6-5.5,5.7-9.2,5.7h-0.1c-4,0-7.6-2.6-9.7-6.8l0,0L0,9.1l20.2-9.4l14.6,30.9L49.2-0.3l20.2,9.4
			L53.8,42.8C51.7,47.1,48.1,49.6,44,49.7C44.1,49.7,44,49.7,44,49.7z">
   </path>
  </g>
 </g>
</svg>